<svg xmlns="http://www.w3.org/2000/svg" width="605" height="183" fill="none"><path fill="#000" d="M171.896 11.315c-.062.062-1.669.171-3.588.25-1.919.077-4.758.218-6.302.311a84.982 84.982 0 0 0-4.29.328c-.811.093-2.325.265-3.339.39-1.029.109-2.854.468-4.056.78-1.216.312-2.839.624-3.619.702-.842.078-1.856.296-2.48.53-.593.219-1.825.53-2.746.702-.92.156-2.09.468-2.605.671-.515.218-1.451.468-2.09.577-.624.11-1.529.39-1.997.624a9.479 9.479 0 0 1-1.498.609c-.343.093-1.232.28-1.965.405-.718.125-2.184.515-3.261.874-1.061.359-2.543.889-3.276 1.17-.749.296-1.872.67-2.511.827-.64.171-1.779.624-2.559 1.014-.983.514-2.028.889-3.572 1.279-1.201.296-2.777.811-3.51 1.139-.733.327-1.498.655-1.716.717a9.813 9.813 0 0 0-.858.312 35.1 35.1 0 0 1-1.56.671c-.593.25-1.482.593-1.95.733-.468.156-1.498.577-2.278.952-.764.359-1.856.842-2.418 1.045-.546.203-1.763.749-2.714 1.186-.936.452-1.825.889-1.95.967a19.333 19.333 0 0 1-2.434 1.232c-.514.234-1.326.671-1.794.967-.468.297-1.045.656-1.31.796-.25.14-1.654.811-3.105 1.513-1.466.687-2.76 1.342-2.886 1.467-.14.109-1.2.733-2.355 1.372a145.12 145.12 0 0 1-3.105 1.67c-.546.28-1.216.67-1.481.873-.266.203-.983.593-1.576.874-.608.28-1.264.624-1.482.764-.218.156-1.154.671-2.075 1.155-.92.483-2.075 1.185-2.574 1.56-.483.358-1.373.92-1.981 1.232-.593.328-1.295.764-1.56.983-.25.234-1.092.827-1.872 1.341a41.077 41.077 0 0 0-2.106 1.514c-.39.327-1.186.858-1.794 1.185-.593.328-1.482.952-1.95 1.404-.468.437-1.389 1.139-2.028 1.545-.64.405-1.45 1.014-1.794 1.341-.343.328-1.014.89-1.482 1.248-.468.359-1.373 1.03-1.997 1.498a36.445 36.445 0 0 0-2.028 1.669c-.5.452-1.42 1.217-2.06 1.716-.639.484-1.637 1.264-2.199 1.7a80.343 80.343 0 0 0-2.73 2.31c-.936.81-2.012 1.824-2.402 2.246-.39.405-1.7 1.778-2.933 3.026-1.232 1.248-2.667 2.84-3.182 3.526a65.457 65.457 0 0 1-1.903 2.355 59.335 59.335 0 0 0-1.841 2.184 51.735 51.735 0 0 1-1.498 1.747 13.3 13.3 0 0 0-1.217 1.56c-.327.5-.905 1.295-1.248 1.779a16.863 16.863 0 0 0-.967 1.404c-.156.28-.655 1.107-1.076 1.794-.422.702-.905 1.685-1.061 2.184-.156.515-.39 1.092-.515 1.31a16.5 16.5 0 0 1-.593.936c-.203.297-.53 1.139-.748 1.872a20.24 20.24 0 0 1-.718 2.106 13.326 13.326 0 0 0-.546 1.482c-.125.39-.265 1.123-.312 1.638-.063.515-.359 1.888-.655 3.042-.546 2.106-.546 2.106-.468 4.602.078 2.215.171 2.761.702 4.914.343 1.326.889 3.12 1.216 3.978.562 1.435.703 1.654 1.779 2.746.655.639 1.591 1.451 2.106 1.809a20.154 20.154 0 0 1 1.965 1.56c.546.5 1.217.999 1.467 1.108.265.094 1.06.312 1.794.484.733.171 1.856.499 2.496.733 1.076.374 1.497.421 4.93.561 3.587.156 3.837.141 5.303-.171.858-.187 2.403-.406 3.464-.484 1.513-.125 2.168-.249 3.057-.608.655-.265 1.716-.531 2.496-.624.765-.094 1.591-.281 1.857-.421.28-.156.81-.422 1.2-.624.39-.188 1.124-.422 1.639-.531.515-.093 1.482-.421 2.137-.717.67-.297 1.779-.64 2.48-.765.703-.125 1.389-.327 1.53-.452.14-.109.483-.328.78-.484.296-.14.95-.405 1.481-.577.53-.172 1.763-.702 2.746-1.17.983-.484 2.746-1.326 3.9-1.872a488.85 488.85 0 0 0 2.964-1.451 13.918 13.918 0 0 1 1.45-.624c.344-.109 1-.421 1.483-.686a48.336 48.336 0 0 0 1.56-.921c.359-.234 1.014-.561 1.466-.748.437-.172.89-.281 1.014-.234.11.046.203.296.203.546 0 .249-.39 1.419-.858 2.574-.468 1.17-1.06 2.527-1.31 3.026-.25.499-.578 1.31-.718 1.81-.156.546-.234 1.201-.187 1.591.03.39.343 1.154.749 1.856.374.655.889 1.435 1.138 1.732.25.296.874.858 1.404 1.263.546.422 1.357.858 1.888 1.03.515.156 1.825.359 2.933.452 1.716.156 2.184.141 3.51-.109.827-.14 2.121-.405 2.87-.561.749-.172 1.638-.297 1.95-.297.328 0 .686.063.811.141.14.093.172.28.125.499-.062.234-.421.561-.998.905-.5.296-1.124.733-1.404.967-.265.234-1.186.92-2.028 1.529-.843.608-2.169 1.591-2.949 2.168a81.656 81.656 0 0 0-2.496 1.919 40.18 40.18 0 0 1-1.856 1.388c-.421.297-1.233.952-1.794 1.482-.562.531-1.357 1.201-1.794 1.482-.421.297-1.342 1.03-2.044 1.638-.686.593-2.215 1.794-3.4 2.652-1.186.858-2.7 1.981-3.355 2.512a70.88 70.88 0 0 1-2.433 1.825c-.686.484-2.106 1.544-3.136 2.324-1.045.796-2.76 2.106-3.822 2.918-1.06.811-2.246 1.762-2.636 2.121-.39.343-1.404 1.139-2.262 1.747-.858.609-1.81 1.373-2.106 1.685-.296.312-.998.905-1.56 1.295a17.384 17.384 0 0 0-1.794 1.466 17.04 17.04 0 0 1-1.716 1.389c-.515.359-1.28.951-1.716 1.31a20.54 20.54 0 0 1-1.482 1.123c-.39.266-1.529 1.233-2.543 2.138-1.014.92-2.215 1.887-2.652 2.184-.452.28-2.511 1.996-4.586 3.806-2.543 2.231-3.9 3.526-4.181 3.994-.234.39-.39.858-.359 1.045.031.187.156.421.297.499.187.125.452.094.967-.109.39-.141 1.185-.687 1.762-1.186a35.964 35.964 0 0 1 1.935-1.544 33.566 33.566 0 0 0 2.028-1.591c.64-.531 2.23-1.763 3.51-2.715 1.295-.967 2.777-2.121 3.291-2.589a88.23 88.23 0 0 1 1.95-1.638c.547-.437 1.592-1.155 2.325-1.607.733-.453 1.825-1.295 2.418-1.872.608-.577 1.794-1.545 2.652-2.153.858-.608 1.81-1.373 2.106-1.685a9.86 9.86 0 0 1 1.217-1.045c.358-.25 1.139-.874 1.716-1.388.577-.515 1.747-1.42 2.605-2.013a41.81 41.81 0 0 0 2.699-2.012c.624-.531 1.528-1.217 2.028-1.529.483-.312 1.669-1.17 2.605-1.919a112.85 112.85 0 0 1 2.964-2.215c.686-.484 1.638-1.279 2.106-1.763.468-.483 1.529-1.326 2.34-1.872.811-.546 2.262-1.669 3.198-2.496.951-.811 2.106-1.747 2.574-2.059.468-.328 1.28-.936 1.794-1.373a26.717 26.717 0 0 1 1.903-1.451 62.987 62.987 0 0 0 2.262-1.653c.718-.562 1.997-1.591 2.855-2.278.858-.686 2.153-1.653 2.855-2.121a29.812 29.812 0 0 0 2.574-1.982 47.208 47.208 0 0 1 2.527-2.059 67.142 67.142 0 0 0 2.106-1.638 19.142 19.142 0 0 1 1.404-1.092c.296-.218.686-.515.858-.671.171-.156 1.029-.748 1.903-1.326.874-.577 2.012-1.326 2.527-1.669a42.712 42.712 0 0 1 2.262-1.326c.702-.39 1.529-.873 1.825-1.092.297-.218.874-.577 1.28-.78.421-.218 1.138-.717 1.606-1.123.468-.406 1.108-.92 1.436-1.17a25.64 25.64 0 0 0 1.216-.983c.359-.296.968-.717 1.373-.905.718-.358.858-.374 5.382-.405l4.633-.031 1.061-.5c.624-.296 1.311-.499 1.669-.499.437 0 .64.078.765.297.078.171.156.514.156.78 0 .249-.25.873-.546 1.388-.406.686-.624 1.326-.858 2.543-.172.889-.312 1.95-.312 2.34 0 .39.109 1.061.234 1.497.125.437.374.968.561 1.202.188.234.656.577 1.046.78.405.202 1.263.514 1.918.702.64.171 1.592.327 2.122.327.515 0 1.279-.109 1.7-.234.422-.14 1.841-.312 3.152-.39 1.326-.078 2.542-.187 2.73-.249.187-.047.889-.344 1.56-.64.67-.296 1.794-.686 2.496-.842.858-.203 1.716-.562 2.62-1.077.749-.437 1.389-.78 1.436-.78.046 0 .67-.343 1.388-.764a56.03 56.03 0 0 0 2.309-1.482c.561-.39 1.747-1.092 2.652-1.545.905-.468 2.792-1.45 4.212-2.184 2.106-1.107 2.855-1.606 4.149-2.73.858-.748 2.262-1.809 3.12-2.355.843-.546 2.138-1.404 2.871-1.888a35.18 35.18 0 0 1 2.293-1.388c.53-.265 1.154-.484 1.373-.484.218 0 .39.063.39.125s-.219.468-.484.905c-.281.421-1.217 1.529-2.106 2.449-.889.936-1.622 1.747-1.622 1.81 0 .078-.515.561-1.155 1.107-.702.577-1.466 1.404-1.918 2.075-.406.624-1.311 1.716-1.997 2.449-.687.733-1.435 1.716-1.669 2.184-.25.484-.437 1.123-.437 1.451 0 .328.093.78.218 1.014.125.234.39.577.593.749.187.187.515.421.702.515.203.093.952.358 1.685.561.733.219 1.513.39 1.731.39.219 0 .968-.234 1.67-.53.702-.281 1.45-.577 1.669-.64.218-.062.889-.327 1.482-.577.608-.25 1.404-.608 1.778-.78.39-.172.921-.468 1.17-.671.265-.203 1.139-.686 1.935-1.092.795-.405 1.95-1.107 2.558-1.56.702-.515 1.435-.905 1.997-1.061.608-.171 1.123-.468 1.653-.936.422-.374.921-.764 1.108-.858.187-.109.484-.187.655-.187.203 0 .671.437 1.357 1.248.562.687 1.233 1.389 1.467 1.56.249.187.827.437 1.279.562.452.14 1.186.405 1.607.608.717.343 1.014.375 4.056.421 2.933.047 3.603 0 6.318-.39 1.669-.249 3.884-.639 4.914-.904 1.029-.25 2.231-.453 2.652-.453.437 0 1.482-.171 2.34-.374.858-.203 2.153-.453 2.886-.546.733-.078 1.965-.359 2.73-.609.889-.28 1.919-.483 2.808-.546.78-.062 1.856-.234 2.387-.405.53-.172 1.372-.39 1.872-.468.483-.094 1.762-.234 2.823-.328 1.389-.125 2.278-.296 3.214-.639 1.107-.39 1.529-.453 2.855-.453s1.606-.047 1.95-.327c.234-.172.499-.578.592-.905.156-.499.125-.702-.14-1.311-.203-.468-.499-.811-.842-.998-.39-.203-.827-.281-1.763-.25-.687 0-1.872.125-2.652.266-.765.14-2.215.249-3.214.249-1.17 0-2.075.078-2.574.234-.608.187-1.263.219-3.182.156a96.445 96.445 0 0 1-4.056-.249 81.442 81.442 0 0 1-2.964-.375c-.733-.125-2.231-.405-3.354-.624-1.108-.234-2.621-.593-3.339-.811a47.824 47.824 0 0 0-2.527-.686c-.671-.156-1.669-.484-2.199-.734a16.855 16.855 0 0 0-1.966-.733c-.53-.156-1.201-.483-1.498-.733-.39-.312-.639-.718-.873-1.435-.172-.546-.468-1.123-.624-1.264-.172-.156-.64-.312-1.045-.343-.671-.062-.843 0-1.685.577-.874.609-.983.655-1.841.593-.718-.062-1.295-.265-2.964-1.108-1.123-.561-2.34-1.076-2.683-1.138-.343-.063-.765-.172-.936-.266a1.826 1.826 0 0 1-.499-.405c-.11-.14-.188-.468-.188-.718 0-.265.11-.608.266-.78.14-.187.858-.78 1.591-1.357a41.33 41.33 0 0 1 2.215-1.576c.484-.312 1.31-.967 1.841-1.45.53-.5 1.809-1.514 2.855-2.278a127.324 127.324 0 0 1 2.714-1.934c.452-.297.936-.75 1.061-.999.125-.25.234-.655.234-.905s-.156-.686-.359-.982c-.218-.312-.624-.64-1.076-.827-.484-.203-.874-.265-1.264-.187-.374.062-.92.436-1.7 1.138a32.435 32.435 0 0 1-1.997 1.654 30.059 30.059 0 0 0-1.95 1.67c-.609.56-2.075 1.715-3.261 2.573-1.185.858-2.48 1.825-2.854 2.137-.375.328-.749.593-.827.593-.063 0-.515.312-.999.702-.483.39-1.107.811-1.419.936a3.756 3.756 0 0 1-1.217.234c-.468 0-.874-.125-1.373-.452-.39-.25-1.591-.874-2.683-1.389-1.076-.514-2.324-1.185-2.792-1.482a19.428 19.428 0 0 0-1.607-.936 18.656 18.656 0 0 0-1.607-.717 37.702 37.702 0 0 1-1.638-.733c-.437-.234-1.404-.874-2.122-1.451-.733-.562-1.809-1.498-2.418-2.06-.608-.577-1.419-1.232-1.809-1.466-.39-.234-.905-.608-1.155-.811-.249-.218-.826-.858-1.294-1.42a12.35 12.35 0 0 1-1.295-2.137c-.25-.608-.593-1.373-.78-1.716-.172-.327-.312-.873-.312-1.201 0-.452.125-.733.561-1.201.297-.343.874-.78 1.28-.967a7.265 7.265 0 0 0 1.357-.936 200.65 200.65 0 0 0 2.262-2.231l2.153-2.153c.28-.28 1.17-1.154 1.981-1.919a50.264 50.264 0 0 1 2.496-2.262c.577-.468 1.763-1.56 2.636-2.418.858-.858 1.888-1.81 2.262-2.106.39-.296.952-.764 1.248-1.014.312-.265.921-.764 1.342-1.107a27.188 27.188 0 0 1 1.872-1.31c.608-.375 1.201-.765 1.326-.874.125-.094.686-.406 1.248-.687a77.255 77.255 0 0 0 1.95-.967 21.718 21.718 0 0 0 1.825-1.092c.499-.328 1.482-.796 2.184-1.045.718-.25 1.997-.718 2.855-1.014a38.134 38.134 0 0 0 3.12-1.326c.858-.437 1.872-.874 2.262-.999.39-.124 1.014-.312 1.404-.42.39-.094 1.014-.297 1.404-.422.39-.14 1.061-.437 1.482-.686.437-.234 1.31-.578 1.95-.75a18.94 18.94 0 0 0 2.496-.966 30.903 30.903 0 0 1 2.418-1.03c.608-.203 1.685-.624 2.418-.92.733-.281 1.856-.671 2.496-.827.639-.172 2.153-.655 3.354-1.092a207.95 207.95 0 0 0 3.479-1.248 24.133 24.133 0 0 1 2.418-.733 13.25 13.25 0 0 0 1.794-.546c.358-.172.982-.437 1.372-.624.39-.172 1.248-.453 1.904-.64.655-.172 1.419-.374 1.669-.437.265-.078.827-.234 1.248-.359a19.933 19.933 0 0 0 1.731-.624 16.06 16.06 0 0 1 1.95-.64 32.17 32.17 0 0 1 2.216-.39c.748-.108 1.716-.39 2.48-.717.718-.327 1.794-.64 2.59-.764.748-.125 1.778-.406 2.293-.624.515-.219 1.607-.5 2.418-.64.811-.14 1.872-.359 2.34-.499.468-.14 1.529-.452 2.34-.702.811-.25 1.981-.515 2.574-.593.608-.078 1.653-.25 2.34-.39.686-.14 1.747-.374 2.34-.546.608-.171 2.433-.515 4.056-.78a195.17 195.17 0 0 0 4.134-.702c.639-.125 2.121-.359 3.276-.53 1.154-.187 2.73-.39 3.51-.484a46.997 46.997 0 0 0 3.276-.561c1.248-.266 2.777-.437 4.602-.515 1.638-.094 3.323-.265 4.212-.453.811-.187 2.355-.374 3.432-.42a91.748 91.748 0 0 0 4.914-.469c1.638-.203 3.947-.421 5.148-.468 1.201-.047 2.465-.156 2.808-.25.343-.093 1.887-.233 3.432-.327 1.544-.094 3.198-.172 3.666-.172.468 0 1.841.078 3.042.172 1.201.094 2.745.312 3.432.484.686.171 1.529.42 1.872.561.343.14.842.359 1.123.484.265.125.562.218.655.218.094 0 .531.172.999.375.452.202 1.248.686 1.762 1.076.5.39 1.139.936 1.42 1.232.281.281.624.796.78 1.14.234.514.265.998.234 2.792-.016 1.513-.125 2.542-.343 3.463-.172.717-.453 1.607-.609 1.965-.156.375-.53 1.061-.826 1.53-.312.467-.796 1.403-1.108 2.074-.312.67-.936 1.654-1.404 2.184-.452.53-1.31 1.7-1.903 2.605a165.38 165.38 0 0 1-1.623 2.48c-.312.469-1.404 1.701-2.433 2.746-1.451 1.482-2.028 1.95-2.574 2.137-.39.125-1.092.36-1.56.515-.468.156-1.389.562-2.044.89-.655.327-1.279.592-1.388.592-.109 0-1.201.515-2.403 1.139-1.216.64-2.511 1.373-2.901 1.622-.39.266-1.123.624-1.638.812-.515.187-1.451.624-2.075.967-.624.343-1.638.936-2.231 1.326s-1.997 1.17-3.12 1.731c-1.123.562-2.48 1.342-3.026 1.732a35.98 35.98 0 0 1-2.278 1.513 25.06 25.06 0 0 0-1.997 1.31c-.374.281-1.123.718-1.638.952-.53.234-1.185.624-1.482.874-.296.25-1.107.858-1.794 1.341-.702.5-1.794 1.264-2.433 1.7-.64.453-1.373 1-1.638 1.233-.25.234-.811.609-1.233.858-.436.234-1.06.702-1.404 1.014a17.87 17.87 0 0 1-1.731 1.28 25.19 25.19 0 0 0-2.059 1.544c-.515.468-1.545 1.373-2.262 2.028-.702.655-1.607 1.388-1.997 1.653-.39.266-.905.718-1.17.983-.25.281-.749.718-1.092.967-.328.25-1.638 1.342-2.886 2.434-1.248 1.076-3.354 3.058-4.68 4.4-1.342 1.325-2.839 2.9-3.354 3.51-.515.592-1.357 1.528-1.888 2.058-.577.593-1.341 1.638-1.934 2.652a62.682 62.682 0 0 1-1.623 2.621c-.561.827-.639 1.045-.639 1.825 0 .656.078.999.327 1.326.172.234.562.593.843.78.374.266.749.359 1.31.359.671 0 1.108-.156 2.449-.827.89-.436 1.841-.904 2.091-.998.265-.109.951-.515 1.529-.889.592-.375 1.263-.765 1.482-.843.234-.093.826-.28 1.341-.436.499-.156 1.108-.422 1.326-.609.219-.187 1.248-.764 2.278-1.279 1.029-.515 2.09-1.045 2.34-1.186.265-.14.889-.436 1.388-.655.499-.218 1.326-.717 1.81-1.092a30.986 30.986 0 0 0 1.731-1.42c.468-.39 1.358-.951 1.982-1.247.639-.281 1.606-.843 2.168-1.233.562-.39 1.498-.951 2.075-1.248a9.922 9.922 0 0 0 1.95-1.357c.499-.452 1.014-.89 1.154-.967.141-.078.874-.64 1.638-1.248.749-.593 1.81-1.42 2.356-1.81.53-.39 1.388-1.014 1.887-1.388.515-.39 1.014-.796 1.124-.905.109-.11 1.029-.811 2.028-1.544.998-.75 2.199-1.716 2.636-2.169.452-.452 1.467-1.326 2.262-1.95.796-.608 1.81-1.529 2.231-2.028.437-.483 1.029-1.045 1.326-1.217.296-.171 1.357-1.185 2.355-2.246.999-1.06 2.294-2.309 2.886-2.777.593-.468 1.748-1.591 2.559-2.465a124.97 124.97 0 0 1 3.213-3.354c.952-.967 2.637-2.574 3.76-3.603 1.108-1.014 2.324-2.215 2.699-2.683a16.918 16.918 0 0 1 1.56-1.654 75.723 75.723 0 0 1 1.575-1.42c.375-.327 1.326-.889 2.091-1.263.78-.359 1.685-.733 2.028-.827a83.808 83.808 0 0 0 2.184-.64c.858-.25 1.872-.546 2.262-.64.39-.093 1.7-.374 2.933-.639 1.232-.25 2.48-.468 2.776-.468.297 0 .968.14 1.498.328.515.171 1.357.593 1.841.92.499.343 1.061.796 1.232 1.03.187.234.406.686.499.998.141.468.125.983-.078 2.45-.14 1.013-.343 2.09-.436 2.386-.094.297-.515 1.17-.952 1.95-.421.765-.967 1.654-1.201 1.95-.234.312-.624.936-.874 1.404-.234.468-.78 1.342-1.232 1.95-.437.593-.967 1.373-1.201 1.716-.219.343-.952 1.217-1.607 1.95-.671.733-1.404 1.591-1.654 1.919-.234.328-1.029 1.123-1.763 1.778-.748.64-1.341 1.217-1.341 1.295 0 .063-.312.515-.702.983-.375.468-.936 1.014-1.233 1.186-.28.187-.686.561-.873.842-.187.265-.78.842-1.295 1.28a18.596 18.596 0 0 0-1.81 1.7c-.483.499-1.185 1.123-1.575 1.388a16.55 16.55 0 0 0-1.638 1.342c-.515.483-2.059 1.762-3.432 2.854-1.373 1.092-3.136 2.496-3.931 3.12-.78.624-2.403 1.904-3.588 2.855-1.186.936-2.418 1.966-2.746 2.278-.312.312-1.061.858-1.638 1.201-.577.359-1.373.905-1.778 1.232-.406.328-1.17.936-1.701 1.373-.53.421-1.513 1.295-2.199 1.903-.671.624-1.482 1.28-1.81 1.467a4.127 4.127 0 0 0-.998.889c-.312.39-.437.733-.437 1.154 0 .328.109.812.234 1.046.125.249.452.53.733.655.281.125.842.218 1.232.203.468 0 .968-.156 1.451-.422.406-.218 1.092-.702 1.513-1.076a77.99 77.99 0 0 0 2.075-1.856c.687-.656 1.825-1.716 2.512-2.356.686-.655 1.638-1.42 2.121-1.716a15.98 15.98 0 0 0 1.638-1.232c.422-.375 1.046-.905 1.389-1.155.343-.265.967-.795 1.404-1.185.421-.39 1.029-.874 1.326-1.077.296-.203.936-.733 1.404-1.17.468-.452 1.497-1.279 2.262-1.856.78-.593 1.685-1.357 2.043-1.716.344-.343.968-.936 1.404-1.295.422-.359 1.467-1.123 2.325-1.7.858-.578 2.371-1.748 3.354-2.621.983-.858 2.215-1.997 2.73-2.527.515-.515 1.357-1.233 1.887-1.592a15.545 15.545 0 0 0 1.81-1.466c.515-.5 1.342-1.06 2.09-1.435.671-.328 1.482-.796 1.779-1.03.296-.234.998-.686 1.56-.998.561-.312 1.638-1.092 2.418-1.732.764-.64 1.856-1.388 2.418-1.653.546-.266 1.263-.702 1.56-.983.312-.281 1.186-.89 1.95-1.373.78-.468 1.856-1.06 2.418-1.31.546-.25 1.388-.78 1.841-1.186.468-.406 1.357-1.014 1.965-1.342.609-.327 1.529-.733 2.028-.889a7.017 7.017 0 0 0 1.716-.842c.437-.297 1.42-.858 2.2-1.264a47.74 47.74 0 0 0 2.48-1.388c.593-.375 1.716-.92 2.496-1.217.78-.296 1.919-.702 2.512-.905a19.034 19.034 0 0 0 2.262-.905 28.48 28.48 0 0 1 2.449-.967c.702-.234 1.685-.67 2.184-.967a23.41 23.41 0 0 1 1.841-.998c.515-.25 1.154-.453 1.419-.453.25 0 .546.078.656.187.109.11.187.422.187.702 0 .297-.094.718-.219.952-.124.234-.499.67-.826.983-.328.312-.843.717-1.139.92-.297.203-1.233 1.045-2.059 1.857-.827.826-2.34 2.324-3.354 3.322-1.014.999-2.309 2.2-2.871 2.652-.561.468-2.745 2.543-4.836 4.618-2.09 2.06-4.087 3.962-4.43 4.212-.343.25-.999.874-1.435 1.388-.453.515-1.436 1.467-2.184 2.09a65.966 65.966 0 0 0-2.762 2.481c-.764.733-2.23 2.137-3.244 3.12-1.014.983-2.028 1.966-2.247 2.184-.234.219-1.653 1.654-3.167 3.198-1.513 1.56-3.135 3.292-3.603 3.885-.468.577-.936 1.279-1.045 1.544-.094.28-.188.702-.188.967-.015.25.11.718.266.999.156.343.53.686.951.904.421.219.967.36 1.404.36.39 0 1.326-.172 2.075-.375.749-.203 1.638-.53 1.966-.733.343-.203 1.138-.687 1.778-1.061a61.596 61.596 0 0 0 2.059-1.31c.499-.344 1.591-.921 2.418-1.264.827-.359 2.044-.936 2.699-1.31a31.123 31.123 0 0 0 2.184-1.327 22.105 22.105 0 0 1 2.309-1.341 37.03 37.03 0 0 0 3.042-1.794c.951-.624 2.137-1.373 2.652-1.654.515-.28 1.529-.873 2.262-1.295.733-.42 2.106-1.232 3.042-1.794.951-.577 2.137-1.357 2.652-1.747.515-.405 1.248-.905 1.638-1.123.39-.218.858-.452 1.061-.515.202-.062.842-.39 1.404-.717.577-.344 1.778-.968 2.667-1.389.889-.437 2.122-1.17 2.73-1.622.609-.468 1.779-1.186 2.59-1.607a35.984 35.984 0 0 0 2.886-1.7 70.354 70.354 0 0 1 2.184-1.389c.437-.234.889-.515 1.014-.624.125-.109 1.154-.702 2.262-1.326 1.123-.608 2.106-1.201 2.184-1.295.093-.109.327-.327.546-.468.203-.14.53-.265.733-.265.187 0 .39.078.437.172.062.078-.281.546-.765 1.03a22.954 22.954 0 0 0-1.716 1.903 28.931 28.931 0 0 1-2.074 2.2c-.687.639-1.716 1.575-2.294 2.074-.561.515-1.263 1.248-1.528 1.638-.266.406-1.202 1.466-2.044 2.371-.858.905-2.059 2.309-2.652 3.12-.608.811-1.217 1.591-1.357 1.716-.141.125-.515.562-.843.967-.312.39-.842 1.342-1.154 2.106-.437 1.077-.562 1.592-.577 2.387 0 .811.078 1.108.359 1.513.187.266.733.687 1.201.905.827.406.905.421 3.229.359 1.903-.047 2.574-.125 3.323-.39.515-.172 1.529-.5 2.262-.733.733-.219 1.685-.624 2.106-.874.437-.25 1.513-.811 2.418-1.248a49.252 49.252 0 0 1 2.574-1.201c.515-.218 1.747-.811 2.73-1.326.983-.5 2.246-1.17 2.792-1.466.733-.39 1.17-.53 1.56-.5.484.047.562.11.609.484.046.374-.141.64-1.248 1.732-.718.702-1.482 1.638-1.716 2.059-.359.655-.437 1.06-.531 2.449-.093 1.513-.078 1.7.187 1.997.156.187.578.468.936.608.344.156 1.03.359 1.529.468.671.14 1.233.14 2.325 0 .795-.093 1.918-.28 2.511-.405a33.643 33.643 0 0 1 2.184-.375 8.097 8.097 0 0 0 2.153-.624c.608-.265 1.56-.546 2.262-.64.671-.093 1.576-.28 1.997-.405.437-.14.858-.296.936-.359.093-.062.827-.327 1.638-.593.811-.25 2.09-.64 2.823-.873.749-.234 2.262-.874 3.354-1.42 1.763-.889 2.122-1.014 2.886-1.014.718 0 .983.078 1.514.453.343.25.67.546.733.624.047.093.374.312.717.499.344.171 1.061.452 1.592.624.546.171 1.778.374 2.839.452 1.029.078 2.153.219 2.496.328.359.093.998.14 1.482.078.468-.047 1.638-.187 2.605-.312.952-.125 2.012-.312 2.356-.406.343-.078 1.856-.296 3.369-.468 1.498-.171 3.073-.421 3.479-.561.406-.14 1.045-.39 1.42-.546.358-.172 1.138-.422 1.716-.562a39.809 39.809 0 0 0 2.308-.608c.702-.203 1.436-.375 1.607-.375.187 0 .499.156.702.359.219.218.468.796.64 1.513.156.64.405 1.42.561 1.716.141.312.578.843.952 1.201.39.344.967.718 1.31.843.328.109 1.061.203 1.623.203.561-.016 1.887-.047 2.964-.094a42.238 42.238 0 0 0 3.51-.328c.858-.14 2.371-.358 3.354-.499.983-.14 2.231-.312 2.761-.405.546-.078 1.591-.39 2.34-.671.764-.281 1.763-.609 2.231-.718.468-.093 1.17-.265 1.56-.359.39-.078 1.373-.514 2.184-.936.811-.42 1.591-.858 1.716-.967.125-.109.795-.483 1.482-.842a28.106 28.106 0 0 1 2.402-1.045c.64-.219 1.591-.64 2.122-.936.608-.328 1.17-.53 1.544-.53.312 0 1.186.233 1.935.53.748.28 1.716.592 2.137.702.437.093 1.56.343 2.496.546.951.202 2.309.452 3.042.546.733.093 2.246.28 3.354.405 1.123.125 3.213.234 4.649.234 1.981 0 2.901.063 3.884.297.718.156 2.137.327 3.151.39a39.33 39.33 0 0 1 3.495.358c1.435.219 1.903.219 3.525.063 1.685-.172 2.013-.172 3.058.078.717.156 1.934.28 3.12.296a89.88 89.88 0 0 1 4.29.203c1.295.094 2.979.328 3.744.5 1.185.296 1.622.327 2.808.218.78-.078 2.355-.11 3.51-.078 1.154.015 3.323.171 4.805.343 1.482.156 3.073.296 3.541.296.452 0 1.31.094 1.903.219.577.124 2.153.296 3.479.405 1.326.094 3.369.281 4.524.406 1.154.14 3.089.343 4.29.468 1.201.14 3.416.296 4.914.374 2.387.11 2.886.172 3.978.562l1.248.437 5.569.03c5.164.032 5.632.048 6.552.36.702.234 1.42.327 2.543.343.858 0 1.95.031 2.418.031.468.016 1.529-.078 2.34-.203.811-.125 1.934-.218 2.496-.218a33.12 33.12 0 0 1 2.106.14c.998.094 1.139.078 1.638-.265.405-.28.546-.484.546-.827 0-.343-.125-.515-.531-.764-.499-.297-.795-.312-5.07-.281-2.698.016-4.914-.047-5.475-.14-.515-.094-1.56-.266-2.34-.406-.765-.125-2.808-.28-4.524-.359-1.716-.062-3.885-.203-4.836-.296-.936-.094-1.966-.234-2.262-.328-.297-.078-1.545-.28-2.777-.468-1.248-.171-3.042-.312-4.056-.312-.998 0-2.636-.109-3.619-.234a804.79 804.79 0 0 0-3.432-.483c-.905-.14-2.59-.297-3.744-.375a52.017 52.017 0 0 1-4.29-.452c-1.201-.172-3.37-.453-4.836-.64a97.018 97.018 0 0 0-5.85-.468c-1.763-.078-3.978-.156-4.945-.156-.952 0-2.294-.109-2.964-.234-.671-.14-2.231-.359-3.479-.483-1.248-.14-3.916-.297-5.928-.375-2.013-.062-3.775-.171-3.9-.218-.125-.047-1.747-.125-3.588-.156-2.824-.063-3.51-.125-4.368-.39-.655-.219-1.623-.359-2.73-.406-.952-.031-2.106-.14-2.559-.234-.468-.078-1.684-.156-2.73-.156-1.029 0-2.542-.078-3.338-.156a29.369 29.369 0 0 1-3.214-.608c-.967-.25-2.215-.515-2.761-.562-.546-.062-1.341-.203-1.763-.327-.421-.125-1.684-.702-2.823-1.295-1.123-.593-2.293-1.123-2.59-1.186a1.938 1.938 0 0 0-1.092.14c-.312.125-.764.5-1.014.827-.249.328-.639.796-.873 1.061-.219.25-.827.702-1.326.999-.5.28-1.482.904-2.184 1.372-.702.468-1.826 1.046-2.496 1.295-.671.234-1.67.609-2.231.827-.562.218-1.467.5-2.028.64-.562.156-1.357.374-1.794.499a76.9 76.9 0 0 1-1.638.452c-.468.11-1.81.39-2.964.609-1.155.218-2.699.483-3.417.577-1.029.156-1.872.156-4.118 0-1.56-.11-2.948-.265-3.12-.343-.156-.094-.421-.39-.577-.656-.172-.28-.312-.67-.312-.889 0-.218.14-.608.296-.873.156-.266.546-.64.843-.827.312-.187 1.029-.5 1.622-.702a26.355 26.355 0 0 0 2.075-.843c.561-.265 1.934-.889 3.042-1.372 1.123-.484 2.511-1.046 3.104-1.248a14.37 14.37 0 0 0 2.122-.983 14.194 14.194 0 0 1 2.075-.936 6.574 6.574 0 0 0 1.996-1.123c.531-.422 1.404-.983 1.919-1.233.531-.25 1.482-.858 2.122-1.357.639-.484 1.295-.998 1.435-1.139.14-.125.655-.546 1.154-.936.5-.39 1.264-1.06 1.701-1.497.593-.578.858-.968.983-1.498.109-.406.187-.905.187-1.123 0-.219-.109-.671-.25-1.014-.14-.343-.468-.796-.733-.999-.281-.202-1.03-.608-1.669-.889-.921-.405-1.435-.53-2.418-.593-.843-.03-1.841.047-3.042.266-1.451.265-2.106.468-3.432 1.123-.905.437-2.122 1.045-2.73 1.341-.593.312-1.123.609-1.17.671-.047.063-.687.468-1.42.905-.811.484-1.997 1.404-3.057 2.402-.952.89-2.309 2.09-2.996 2.684-.702.577-1.528 1.388-1.856 1.762a43.818 43.818 0 0 1-1.56 1.779 10.647 10.647 0 0 0-1.622 2.402c-.359.733-.843 1.513-1.092 1.732-.25.203-.609.405-.796.452-.187.031-.874.203-1.513.375-.64.156-1.732.452-2.418.64-.687.17-2.059.608-3.042.935-.983.328-2.184.671-2.652.765-.468.093-2.091.265-3.588.405-1.498.14-3.354.328-4.134.406-.765.093-1.794.203-2.278.25-.561.046-1.185 0-1.747-.172-.499-.14-1.435-.25-2.262-.25-1.248 0-1.466-.047-1.825-.359-.359-.296-.39-.405-.25-.764.078-.234.531-.686.983-1.03.452-.327 1.388-.858 2.075-1.154a21.154 21.154 0 0 0 2.418-1.28c.639-.39 1.232-.717 1.326-.717.093 0 .639-.374 1.201-.827a28.885 28.885 0 0 1 2.496-1.653c.796-.468 2.012-1.17 2.699-1.56a57 57 0 0 0 2.574-1.623 72.077 72.077 0 0 0 2.262-1.575c.515-.39 1.404-.983 1.965-1.326.562-.343 1.342-.999 1.716-1.451a27.1 27.1 0 0 0 1.092-1.373c.297-.452.375-.733.375-1.591 0-.89-.063-1.092-.39-1.45-.219-.235-.593-.531-.843-.656-.249-.14-.795-.25-1.185-.25-.546-.015-1.045.14-2.044.624-.717.36-1.887.858-2.589 1.124-.687.28-1.529.717-1.872.967-.328.265-.999.717-1.482.998-.484.281-1.467.967-2.184 1.529a102.06 102.06 0 0 1-2.621 1.934c-.796.546-2.699 2.262-4.758 4.29-2.761 2.715-3.775 3.604-5.226 4.571-.983.655-2.184 1.373-2.652 1.591-.468.219-1.435.578-2.137.827-.702.234-1.654.655-2.106.905-.453.265-1.56.749-2.465 1.092-.905.328-2.215.718-2.902.858-.702.14-2.121.577-3.167.952-1.029.39-2.324.78-2.854.873-.546.078-1.576.359-2.294.624-.873.328-1.965.562-3.276.718-1.513.187-2.09.203-2.542.078-.422-.14-.624-.297-.687-.562a2.44 2.44 0 0 1 0-.827c.063-.234.577-.873 1.17-1.435.577-.561 1.17-1.217 1.326-1.466.156-.25.577-.765.921-1.139.343-.374 1.154-1.06 1.825-1.513.655-.468 1.295-.936 1.419-1.061.125-.125.64-.5 1.155-.842.515-.344 1.217-.812 1.56-1.03a26.57 26.57 0 0 1 1.248-.749 70.475 70.475 0 0 0 2.34-1.497c.951-.609 2.137-1.373 2.652-1.685.515-.312 1.497-.827 2.184-1.17.686-.328 1.497-.827 1.794-1.092.296-.281.998-.718 1.56-.999a10.65 10.65 0 0 0 1.872-1.2c.468-.39 1.154-.906 1.513-1.14.484-.296.702-.577.842-1.03.141-.452.141-.732 0-1.154-.109-.296-.374-.67-.592-.81-.297-.204-.624-.25-1.248-.204-.687.063-1.014.203-1.732.718-.484.359-1.42.92-2.075 1.264-.655.327-1.466.81-1.809 1.06-.344.234-1.248.718-2.013 1.046-.764.343-1.794.92-2.277 1.279-.5.359-1.124.749-1.404.873-.281.11-.999.453-1.607.765-.593.312-1.513.78-2.028 1.045-.515.265-2.449 1.217-4.306 2.122-1.841.904-3.416 1.653-3.494 1.653-.078 0-.874.359-1.779.78a108.64 108.64 0 0 0-2.667 1.326c-.562.281-2.028 1.03-3.276 1.638-1.248.624-2.668 1.248-3.183 1.42-.499.156-.982.296-1.045.296-.078 0-.546.203-1.045.437-.484.234-1.591.796-2.449 1.232-.858.453-1.763.89-2.028.983-.25.11-1.03.281-1.716.406-.687.125-1.545.218-1.903.218-.468 0-.765-.093-.983-.312-.172-.171-.312-.405-.312-.515 0-.093.14-.483.312-.858.171-.374.639-1.107 1.045-1.638.39-.53.936-1.248 1.201-1.59.265-.344 1.279-1.53 2.262-2.653a152.756 152.756 0 0 1 4.056-4.368c1.248-1.295 2.808-2.98 3.463-3.744.64-.78 1.592-1.763 2.091-2.184a66.941 66.941 0 0 0 2.168-2.028 76.487 76.487 0 0 0 2.059-2.106c.422-.468 1.514-1.513 2.403-2.309.905-.795 1.887-1.59 2.184-1.762a10.16 10.16 0 0 0 1.092-.827c.312-.265.795-.655 1.092-.874a17.9 17.9 0 0 0 1.045-.842c.296-.25.64-.655.764-.89.11-.233.219-.67.219-.951 0-.28-.141-.749-.312-1.03-.172-.28-.577-.624-.874-.748-.359-.156-.749-.203-1.061-.125-.265.047-.686.25-.951.437-.25.171-.858.686-1.342 1.123a12.532 12.532 0 0 1-1.95 1.388c-.593.328-1.497.874-1.997 1.201a17.18 17.18 0 0 1-1.404.858c-.265.14-.514.297-.561.36-.047.046-.39.311-.78.576-.39.266-.874.53-1.077.593-.218.063-1.185.562-2.168 1.108-.983.561-2.137 1.31-2.59 1.685-.436.374-1.388.998-2.121 1.372-.733.375-1.763.968-2.262 1.31-.515.344-1.42.906-2.028 1.233a161.72 161.72 0 0 0-2.964 1.716c-1.03.624-2.746 1.623-3.822 2.231-1.077.593-3.058 1.763-4.415 2.574-1.373.827-2.964 1.685-3.541 1.903-.593.234-1.373.624-1.747.874a97.18 97.18 0 0 1-1.919 1.295 39.322 39.322 0 0 1-2.574 1.575c-.733.421-2.247 1.373-3.385 2.122-1.139.764-2.418 1.56-2.855 1.778-.437.219-1.186.655-1.654.952-.483.312-1.419.811-2.075 1.107a57.14 57.14 0 0 0-2.121 1.03c-.515.25-1.326.718-1.794 1.03-.468.327-1.482.92-2.262 1.326-.765.42-1.794 1.03-2.262 1.341a32.54 32.54 0 0 1-2.122 1.233c-.686.343-1.451.64-1.669.64-.25 0-.421-.094-.421-.204 0-.124.203-.499.452-.826.25-.328.952-1.108 1.56-1.7a99.9 99.9 0 0 1 2.746-2.653c.905-.858 2.246-2.121 2.948-2.808.718-.686 2.559-2.449 4.072-3.9a598.164 598.164 0 0 0 5.429-5.32 218.77 218.77 0 0 1 5.272-5.023c1.42-1.279 3.198-2.995 3.932-3.79.748-.812 1.762-1.748 2.246-2.075a10.303 10.303 0 0 0 1.685-1.529c.437-.5 1.107-1.154 1.513-1.45.39-.313 1.279-1.17 1.95-1.92.671-.748 1.747-2.074 2.371-2.964.624-.873 1.342-2.059 1.591-2.605.312-.64.484-1.248.484-1.7 0-.375-.125-.952-.281-1.264-.14-.312-.437-.686-.639-.811-.219-.14-.671-.25-1.03-.25-.452 0-.983.172-1.732.562-.592.328-1.263.577-1.482.577-.218 0-.686.078-1.029.172-.343.093-1.186.437-1.872.764a27.61 27.61 0 0 1-2.418.999 46.74 46.74 0 0 0-2.496 1.014c-.733.327-1.576.655-1.872.717-.297.063-.999.359-1.56.655a23.12 23.12 0 0 1-2.028.92c-.562.22-2.2 1.062-3.666 1.888-1.451.827-2.964 1.685-3.354 1.92-.39.233-.983.576-1.326.748-.343.187-1.342.64-2.231 1.03-.889.39-1.872.889-2.184 1.138-.312.234-1.139.78-1.825 1.202a57.465 57.465 0 0 1-2.403 1.372c-.639.344-1.482.89-1.872 1.202-.39.327-1.06.795-1.497 1.03a19.53 19.53 0 0 0-1.654 1.122c-.483.375-1.497.999-2.246 1.389-.765.374-1.435.686-1.513.686a.134.134 0 0 1-.125-.125c0-.078.156-.312.327-.514.188-.203.578-.874.858-1.498.312-.655 1.014-1.685 1.685-2.48.64-.75 1.357-1.716 1.623-2.153.249-.437.764-1.31 1.138-1.935.375-.624.874-1.497 1.092-1.934.234-.437.484-1.264.578-1.825.093-.562.218-1.888.28-2.933.094-1.747.078-1.981-.249-2.886-.187-.546-.624-1.326-.952-1.747a14.928 14.928 0 0 0-1.482-1.529c-.483-.421-1.139-.89-1.466-1.06-.328-.172-1.061-.484-1.638-.703-.577-.218-1.248-.39-1.498-.39-.249 0-.998.125-1.669.297-.655.156-2.012.405-2.995.561-1.264.187-2.247.437-3.339.874-1.029.421-1.731.608-2.106.577-.39-.031-.577-.125-.608-.328a1.902 1.902 0 0 1 .031-.655c.047-.187.499-.811.983-1.357.499-.562 1.466-1.778 2.153-2.699.873-1.185 1.357-2.043 1.653-2.87a23.04 23.04 0 0 1 .983-2.293c.297-.609.687-1.732.858-2.496.172-.765.421-1.7.562-2.075.125-.375.234-.89.234-1.155s-.109-1.107-.25-1.887c-.14-.78-.421-1.981-.624-2.668a26.864 26.864 0 0 0-.92-2.387 7.122 7.122 0 0 0-1.42-2.012c-.483-.468-1.232-1.014-1.685-1.217a20.81 20.81 0 0 0-1.809-.717 25.687 25.687 0 0 1-2.184-.89c-1.045-.483-1.42-.561-3.51-.748a208.452 208.452 0 0 1-3.51-.36c-.64-.093-2.964-.124-5.148-.077-2.184.047-4.743.187-5.694.312-.936.109-2.309.25-3.042.312-.733.047-2.106.218-3.058.39l-2.808.452c-.593.094-2.34.234-3.884.312-1.545.078-3.713.281-4.836.453a86.526 86.526 0 0 1-3.713.468c-.936.093-1.747.202-1.825.25-.078.046-.827.155-1.685.233-.842.078-2.059.281-2.699.453-.639.171-2.277.452-3.65.64-1.373.17-3.089.405-3.822.53a437.299 437.299 0 0 0-8.814 1.654 47.79 47.79 0 0 0-2.418.514 31.68 31.68 0 0 1-2.309.406c-.702.093-1.622.312-2.028.483-.406.187-1.264.468-1.903.64-.64.171-1.701.452-2.34.608-.64.156-2.122.468-3.276.702-1.155.234-2.777.655-3.588.952-.811.28-1.903.64-2.418.764-.515.14-2.169.562-3.666.952a68.969 68.969 0 0 0-4.992 1.482 194.845 194.845 0 0 1-4.212 1.42c-1.077.343-2.652.873-3.51 1.17-.858.296-1.841.655-2.184.78a20.22 20.22 0 0 1-1.81.53c-.655.171-2.309.764-3.666 1.326-1.357.561-3.042 1.201-3.728 1.42-.687.202-1.732.623-2.34.904-.593.281-1.763.702-2.574.936-.811.234-1.825.577-2.262.765-.421.187-1.201.483-1.701.64-.514.155-1.466.545-2.106.873-.655.312-2.215.936-3.478 1.357-1.248.437-3.183 1.201-4.29 1.716-1.092.515-2.372 1.014-2.808 1.139-.453.109-.874.14-.936.078-.063-.063.078-.484.312-.92.234-.453 1.201-1.732 2.152-2.84.952-1.123 2.106-2.59 2.559-3.276.452-.686 1.201-1.778 1.638-2.418.437-.64 1.497-2.574 2.355-4.29.843-1.716 1.638-3.447 1.763-3.853.125-.406.312-1.716.421-2.902.156-1.747.156-2.37 0-3.166-.124-.593-.608-1.81-1.201-3.027-.717-1.466-1.357-2.48-2.309-3.666-.717-.905-1.95-2.262-2.761-3.026-1.061-1.014-1.716-1.513-2.465-1.841-.561-.25-1.17-.53-1.341-.624a89.465 89.465 0 0 0-1.794-.92c-.811-.406-1.903-.843-2.418-.968a15.823 15.823 0 0 0-1.872-.358c-.515-.063-1.638-.344-2.496-.64-1.467-.515-1.747-.546-4.446-.67-1.591-.079-3.51-.188-4.29-.25-.765-.047-1.451-.047-1.498 0Zm4.228 2.98c1.326.124 3.151.358 4.056.53.905.156 2.745.577 4.103.936 1.357.343 3.182.936 4.056 1.31.873.374 2.059.983 2.605 1.357.561.375 1.575 1.248 2.262 1.935.702.702 1.653 1.856 2.121 2.59.484.732 1.139 1.95 1.451 2.73.328.764.655 1.684.749 2.027.078.359.109 1.326.047 2.262-.063.905-.203 2.106-.312 2.683-.125.64-.515 1.607-1.03 2.574-.452.843-1.17 2.2-1.575 3.011a82.108 82.108 0 0 1-1.077 2.028l-.889 1.404c-.296.468-1.186 1.7-1.95 2.73-.78 1.03-2.246 2.886-3.276 4.134-1.03 1.248-2.106 2.465-2.387 2.73-.265.25-.811.858-1.185 1.326-.39.468-1.389 1.56-2.247 2.434-.936.936-2.075 1.919-2.87 2.433a66.801 66.801 0 0 1-2.808 1.685 110.98 110.98 0 0 0-2.293 1.357c-.453.281-.858.515-.905.515-.047 0-.453.297-.905.64-.452.359-1.17.873-1.591 1.154-.437.265-1.201.874-1.716 1.342-.515.468-1.279 1.107-1.716 1.42-.421.311-1.373 1.185-2.106 1.934-.733.764-1.545 1.591-1.794 1.856-.265.25-.687.749-.936 1.077-.265.327-.655.936-.889 1.326-.234.39-.624 1.138-.874 1.653a22.146 22.146 0 0 0-.702 1.498c-.125.312-.593.983-1.014 1.497a13.221 13.221 0 0 1-1.856 1.732 23.406 23.406 0 0 0-2.06 1.747c-.561.53-1.404 1.233-1.872 1.56-.483.328-1.045.78-1.263 1.014-.219.234-.702.64-1.092.905-.39.265-1.186.874-1.779 1.342a58.394 58.394 0 0 0-2.34 2.043 45.896 45.896 0 0 1-2.121 1.857 57.025 57.025 0 0 0-1.794 1.45 97.022 97.022 0 0 1-2.371 1.935c-.796.64-1.623 1.404-1.857 1.7-.218.297-.873.858-1.451 1.233-.592.374-1.372.967-1.778 1.31-.39.343-.889.655-1.123.718-.265.062-.562.015-.858-.156-.25-.156-.562-.546-.718-.874-.171-.406-.499-.749-.92-.998-.515-.297-.874-.375-1.654-.375-.546 0-1.341.094-1.778.219-.421.124-1.311.436-1.95.686-.64.265-1.591.64-2.106.827-.718.265-1.17.593-1.95 1.373-.562.577-1.389 1.575-1.825 2.246-.453.655-.968 1.498-1.155 1.856-.296.593-.327.843-.249 2.169.062 1.217.171 1.7.561 2.605.265.608.484 1.217.484 1.357 0 .141-.078.39-.156.562-.094.156-.718.686-1.404 1.154-.671.484-1.56 1.17-1.981 1.545-.406.374-.968.811-1.248.982-.266.156-.968.656-1.56 1.108a53.765 53.765 0 0 1-2.309 1.669 71.534 71.534 0 0 1-3.12 1.966c-1.03.624-2.356 1.419-2.964 1.794-.593.359-1.513.858-2.028 1.123-.515.25-1.186.53-1.482.624-.297.094-1.03.312-1.638.515-.593.187-1.154.39-1.248.452-.078.078-.92.39-1.872.718l-1.716.577-3.588.125c-2.137.062-3.853.062-4.259-.031-.374-.078-1.217-.453-1.872-.827-.655-.375-1.341-.874-1.513-1.092-.25-.343-.328-.718-.359-1.779-.047-1.216-.015-1.419.359-2.059.218-.39.515-.951.655-1.248.14-.296.296-1.092.359-1.747.078-.936.203-1.357.53-1.856.234-.344.905-1.155 1.498-1.794.593-.64 1.295-1.576 1.56-2.075.28-.515.827-1.279 1.232-1.701.39-.421 1.217-1.076 1.81-1.435.608-.359 1.31-.842 1.591-1.076a14.86 14.86 0 0 1 1.248-.874 41.832 41.832 0 0 0 1.84-1.232 33.364 33.364 0 0 0 1.95-1.513c.484-.406 1.467-1.124 2.185-1.607.733-.484 1.778-1.217 2.324-1.654.546-.421 1.342-1.076 1.779-1.435a36.515 36.515 0 0 1 1.903-1.529c.608-.468 1.529-1.17 2.028-1.56a32.546 32.546 0 0 0 1.872-1.575c.515-.484 1.295-1.108 1.716-1.373.437-.265 1.107-.92 1.529-1.467.421-.546.842-1.326.982-1.794.234-.78.234-.889-.015-1.544-.219-.562-.453-.827-1.217-1.31-.515-.344-1.217-.687-1.576-.78a3.744 3.744 0 0 0-1.248-.078c-.343.062-1.138.312-1.762.561-.624.25-1.607.811-2.184 1.248-.562.421-1.108.78-1.202.78-.093 0-.452.14-.795.328a7.848 7.848 0 0 0-1.248.905 10.61 10.61 0 0 1-.999.842c-.218.14-1.107.905-2.012 1.7-.89.796-2.511 2.418-3.603 3.62a649.772 649.772 0 0 0-2.887 3.198c-.499.561-1.138 1.279-1.404 1.575-.265.297-.748.905-1.06 1.342a20.446 20.446 0 0 0-.843 1.326c-.14.296-.608.873-1.014 1.31-.405.421-.951 1.061-1.2 1.42-.266.359-.859.983-1.343 1.388-.483.421-1.31.999-1.84 1.295-.546.281-2.075 1.092-3.401 1.794a287.63 287.63 0 0 1-4.212 2.137 250.36 250.36 0 0 1-3.978 1.95 104.54 104.54 0 0 1-3.666 1.669c-.811.344-2.106.921-2.886 1.295a25.96 25.96 0 0 1-2.496 1.092c-.593.234-1.513.577-2.028.78-.515.203-1.466.515-2.106.702-.64.203-1.7.593-2.356.874-.655.296-2.028.749-3.042 1.014-1.03.265-2.059.546-2.324.608-.25.078-.952.265-1.56.437a20.99 20.99 0 0 1-2.184.484 26.15 26.15 0 0 0-2.574.592l-1.482.422-4.727-.016c-3.978-.031-4.867-.078-5.538-.296-.452-.141-.873-.312-.967-.375-.078-.062-.608-.265-1.17-.468a42.88 42.88 0 0 1-1.56-.593 49.153 49.153 0 0 1-1.233-.546c-.374-.171-1.17-.717-1.794-1.201-.608-.483-1.279-1.185-1.497-1.544a60.935 60.935 0 0 0-.764-1.233c-.203-.312-.671-1.216-1.03-1.981-.359-.78-.764-1.763-.905-2.184a9.36 9.36 0 0 1-.343-1.497c-.063-.39-.031-1.857.062-3.276.125-1.857.297-3.058.624-4.353.234-.983.53-2.215.655-2.73.11-.515.422-1.497.687-2.184.28-.686.593-1.638.702-2.106.11-.468.312-1.17.437-1.56.14-.39.561-1.263.951-1.95a78.646 78.646 0 0 0 1.53-2.933c.451-.92.966-1.84 1.138-2.028.172-.202.655-.78 1.06-1.31.406-.515 1.28-1.622 1.935-2.434.67-.826 1.28-1.544 1.373-1.59.093-.048.546-.64 1.03-1.296.483-.655 1.06-1.404 1.294-1.638.219-.234.718-.904 1.108-1.482.39-.577 1.108-1.372 1.607-1.762.499-.406 1.31-1.264 1.81-1.92.498-.654 1.544-1.762 2.293-2.464a57.04 57.04 0 0 1 1.934-1.67c.296-.218 1.185-.998 1.95-1.73a51.616 51.616 0 0 1 2.652-2.31c.686-.546 1.654-1.31 2.153-1.7.499-.406 1.03-.89 1.154-1.092.14-.203.718-.702 1.28-1.108a23.6 23.6 0 0 0 2.058-1.669c.562-.53 1.264-1.045 1.56-1.17.281-.109.812-.421 1.155-.686.343-.25.873-.687 1.17-.952.296-.28.936-.733 1.404-1.014.468-.28 1.42-.92 2.106-1.42.686-.499 1.856-1.357 2.605-1.887a31.316 31.316 0 0 1 2.309-1.513c.515-.297 1.06-.64 1.201-.78.156-.14.609-.515.999-.827.39-.328.982-.702 1.326-.842.327-.14 1.279-.687 2.09-1.217a28.763 28.763 0 0 1 2.808-1.638c.733-.375 1.435-.765 1.56-.874.125-.109.749-.468 1.388-.795.64-.312 1.56-.858 2.028-1.202.484-.327 1.514-.904 2.278-1.279.78-.374 1.794-.889 2.262-1.139a46.73 46.73 0 0 1 2.028-1.045c.64-.312 1.28-.67 1.404-.78.125-.109.905-.561 1.716-1.014.811-.452 3.026-1.607 4.914-2.558 1.888-.967 4.212-2.044 5.148-2.418.951-.375 2.246-.983 2.901-1.357.656-.375 1.233-.687 1.28-.687.062 0 1.45-.53 3.104-1.17 1.654-.655 3.479-1.388 4.04-1.638.562-.234 1.467-.53 2.028-.624a36.767 36.767 0 0 0 1.857-.421c.468-.125 1.17-.374 1.56-.546.39-.172.811-.406.936-.515.125-.109.873-.483 1.638-.827.78-.327 1.934-.733 2.574-.873.639-.156 2.012-.577 3.042-.952a86.744 86.744 0 0 1 3.354-1.139c.811-.265 1.965-.561 2.558-.655.593-.093 1.435-.312 1.872-.499a39.46 39.46 0 0 1 1.638-.608c.468-.156 1.014-.297 1.217-.297.218 0 .889-.203 1.498-.452.624-.234 1.622-.53 2.215-.624a21.79 21.79 0 0 0 2.262-.562c.639-.203 1.872-.483 2.73-.624a33.683 33.683 0 0 0 2.496-.468c.515-.109 1.825-.437 2.901-.686 1.077-.265 2.528-.546 3.198-.624.671-.094 2.606-.234 4.275-.312a165.91 165.91 0 0 0 4.602-.328c.858-.093 3.026-.234 4.82-.312 1.794-.093 3.307-.187 3.339-.234.046-.047.468-.078.951-.078.484 0 1.966.11 3.292.234Zm133.661 45.63c-.078.264-.656 1.013-1.264 1.668-.624.656-1.825 1.779-2.683 2.512-.858.733-1.903 1.7-2.34 2.137a45.656 45.656 0 0 0-1.326 1.42c-.297.327-1.248 1.263-2.106 2.075-.858.81-2.387 2.34-3.401 3.416-1.014 1.076-2.106 2.153-2.418 2.402-.312.25-1.264 1.124-2.122 1.95-.842.812-1.95 1.748-2.464 2.075-.5.328-1.217.905-1.576 1.264a9.878 9.878 0 0 1-1.466 1.17c-.437.296-1.217.905-1.716 1.357-.5.468-1.467 1.232-2.153 1.716a51.064 51.064 0 0 0-1.95 1.435c-.39.297-1.045.78-1.482 1.061-.421.296-1.061.718-1.404.936-.343.234-1.248.874-2.028 1.435-.765.546-1.888 1.295-2.496 1.654a33.265 33.265 0 0 0-2.184 1.466c-.593.453-1.342.936-1.638 1.092-.297.156-.796.468-1.092.687-.297.218-.858.655-1.248.982-.39.312-1.576 1.03-2.652 1.576-1.077.546-2.434 1.186-3.042 1.435-.593.234-1.435.593-1.841.811-.421.203-1.076.609-1.482.89-.406.28-1.42.873-2.278 1.326-1.092.577-1.669.795-2.028.764-.405-.031-.499-.125-.53-.484-.031-.28.094-.655.328-1.014.218-.327.858-1.107 1.419-1.747a70.453 70.453 0 0 0 2.418-2.98c.78-.998 1.591-1.98 1.841-2.168.234-.187 1.045-.92 1.81-1.638.748-.717 1.872-1.716 2.496-2.2a46.724 46.724 0 0 0 2.605-2.324c.811-.78 1.887-1.7 2.387-2.028.499-.327 1.185-.951 1.513-1.388.312-.453.827-1.03 1.139-1.295.312-.265.998-.749 1.544-1.06.546-.313 1.513-1.093 2.153-1.717.655-.624 1.575-1.341 2.106-1.607.515-.265 1.295-.795 1.716-1.185.437-.406 1.154-.936 1.607-1.186.452-.265 1.357-.967 1.996-1.56.64-.593 1.67-1.373 2.294-1.731a43.41 43.41 0 0 0 2.184-1.358c.577-.374 1.497-.873 2.028-1.076.53-.218 1.216-.577 1.513-.796a29.591 29.591 0 0 0 1.575-1.31c.78-.686 1.28-.983 2.044-1.217.546-.171 1.373-.593 1.841-.936.468-.359 1.575-.983 2.465-1.404a41.38 41.38 0 0 0 2.496-1.31 55.05 55.05 0 0 1 2.152-1.201c.671-.36 2.247-1.17 3.479-1.81 1.233-.624 2.387-1.139 2.543-1.139.156 0 .281-.078.281-.156 0-.093.14-.156.296-.156.281 0 .297.047.141.468Zm171.88 8.907c.125.093.219.374.219.608 0 .281-.219.687-.562 1.108-.312.374-.967.967-1.451 1.326a87.476 87.476 0 0 1-2.277 1.544c-.78.5-1.654 1.108-1.95 1.342-.297.234-.967.64-1.482.889-.515.265-1.638.796-2.496 1.201-.858.39-2.293 1.061-3.198 1.482-.905.421-2.449 1.123-3.432 1.576-.983.437-1.981.827-2.2.873-.234.047-.468-.015-.593-.156-.156-.202-.14-.327.032-.686.124-.234.748-.936 1.388-1.529.64-.608 1.95-1.731 2.917-2.496a61.98 61.98 0 0 0 2.418-2.012c.343-.343 1.108-.92 1.701-1.295a17.67 17.67 0 0 1 2.106-1.17 38.568 38.568 0 0 0 2.215-1.154c.842-.484 1.763-.827 3.276-1.217 1.217-.328 2.324-.53 2.621-.484.296.031.624.14.748.25Zm-147.872 3.666c-.047.047-.187.062-.296.015-.125-.046-.078-.093.093-.093.172-.016.265.031.203.078Zm-173.753 8.05c.156.374.328.873.39 1.123.063.25.312.748.562 1.107.234.343 1.232 1.451 2.215 2.434.967.998 2.184 2.106 2.699 2.449a37.181 37.181 0 0 1 2.184 1.685c.686.561 1.466 1.123 1.716 1.263.265.14.967.624 1.575 1.092.812.609 1.451.936 2.34 1.217.734.234 1.935.811 2.949 1.42.951.561 2.106 1.217 2.574 1.45.468.25 1.248.562 1.716.718.468.156 1.045.375 1.263.484.234.109.453.327.515.468.047.14-.047.452-.234.717-.187.25-.686.609-1.139.812-.436.187-.998.405-1.263.468-.25.062-1.03.483-1.716.936-.687.452-1.529.998-1.872 1.201-.343.187-2.028 1.295-3.744 2.433a331.777 331.777 0 0 0-4.212 2.84c-.593.405-2.075 1.294-3.276 1.965-1.201.655-2.418 1.373-2.699 1.591-.265.203-1.295.765-2.262 1.248-.952.484-2.59 1.342-3.619 1.904-1.03.577-2.964 1.575-4.29 2.23-1.326.671-3.058 1.42-3.822 1.67-.78.265-2.449.639-3.713.873-1.638.281-2.87.39-4.212.39-1.513 0-2.028-.062-2.543-.296-.343-.156-.78-.484-.967-.718-.25-.296-.343-.655-.343-1.17 0-.39.109-1.107.249-1.575.156-.484.702-1.498 1.326-2.403.593-.858 1.482-1.919 1.982-2.355.483-.437 1.294-1.108 1.778-1.514.484-.39 1.123-.811 1.404-.936a6.182 6.182 0 0 1 1.076-.327c.297-.047.905-.312 1.326-.593.422-.265 1.264-.702 1.857-.983a54.137 54.137 0 0 1 1.997-.858c.499-.203.998-.437 1.092-.546.109-.093.546-.437.982-.733a16.625 16.625 0 0 1 1.42-.889 8.125 8.125 0 0 0 1.123-.718c.343-.296.484-.546.484-.889 0-.25-.078-.608-.172-.796-.093-.187-.359-.546-.593-.78a3.54 3.54 0 0 0-.826-.67c-.234-.125-.812-.219-1.28-.219-.483 0-1.31.156-1.84.328-.546.187-1.794.764-2.777 1.263-.983.515-2.325 1.217-2.98 1.576-.655.359-1.716 1.139-2.34 1.716-.639.593-1.575 1.373-2.09 1.732-.515.374-1.155.78-1.42.92-.265.14-1.139.359-1.95.499-.811.141-1.981.328-2.589.39-.624.078-1.358.203-1.638.297-.281.093-1.202.312-2.06.483-.842.172-1.872.312-2.293.312-.561 0-.842-.078-1.092-.327-.218-.219-.281-.422-.203-.656.047-.187.188-.499.312-.702a2.3 2.3 0 0 1 .546-.546c.172-.093.593-.546.921-.998.343-.452 1.17-1.217 1.825-1.732a45.97 45.97 0 0 1 1.7-1.216c.266-.156 1.124-.78 1.919-1.373.78-.593 1.42-1.139 1.42-1.201 0-.078.655-.624 1.451-1.217.78-.593 1.606-1.264 1.825-1.498.218-.234.92-.811 1.56-1.295a49.28 49.28 0 0 0 2.574-2.137c.78-.686 1.825-1.591 2.34-1.997.515-.405 1.17-1.014 1.451-1.357.28-.343.92-.889 1.404-1.232.483-.328 1.029-.765 1.201-.952.171-.187.702-.608 1.17-.936.468-.327 1.076-.811 1.326-1.092.265-.28.873-.78 1.373-1.123.514-.343 1.716-1.357 2.683-2.23.983-.89 2.075-1.842 2.433-2.091.375-.281.858-.484 1.108-.484.374 0 .484.094.733.655Zm-50.903 6.754c.063.14.016.453-.093.702-.109.25-.375.577-.609.718a26.02 26.02 0 0 0-1.419 1.139c-.546.483-1.279 1.123-1.607 1.404-.328.296-.952.826-1.404 1.154a21.03 21.03 0 0 0-1.607 1.342c-.437.39-1.076.936-1.404 1.2-.343.266-1.045.718-1.544.984-.515.265-1.28.733-1.7 1.03-.406.296-.812.545-.89.545-.078 0-.14-.078-.14-.187 0-.094.328-.546.749-.983a155.38 155.38 0 0 0 1.747-2.012c.562-.655 1.451-1.545 1.997-1.981.53-.437 1.17-1.03 1.404-1.31.234-.282 1.123-.984 1.981-1.56.858-.594 1.872-1.327 2.262-1.654.39-.312.811-.609.936-.656.125-.046.468-.093.749-.093.312-.016.546.078.592.218Zm19.734 11.139c.25.202.359.452.359.842 0 .484-.156.733-.998 1.638-.562.608-1.685 1.794-2.496 2.668-.811.873-1.701 1.731-1.966 1.887-.265.172-.671.312-.905.312-.218 0-.546-.14-.702-.296-.171-.172-.358-.562-.421-.874-.062-.374-.015-.78.156-1.248.172-.437.718-1.123 1.545-1.981.717-.702 1.669-1.607 2.121-1.997.468-.39 1.061-.827 1.326-.967a2.96 2.96 0 0 1 1.045-.28c.344 0 .718.124.936.296Zm63.04 2.308c.998.546 2.075 1.077 2.418 1.17.328.078.78.297 1.03.468.234.172.499.437.592.624.094.172.125.484.078.687-.062.249-.483.624-1.216 1.092-.609.39-1.28.936-1.498 1.201-.234.281-.702.78-1.045 1.123-.343.343-1.045.874-1.545 1.17-.499.297-1.419.936-2.043 1.42-.624.499-1.545 1.107-2.044 1.357-.515.25-1.373.624-1.919.827-.546.187-1.45.655-2.012 1.029-.562.375-1.154.671-1.295.671-.14 0-.78.375-1.404.827-.639.452-1.544.998-2.012 1.186-.468.202-1.186.561-1.591.826-.406.25-.983.531-1.295.609-.312.093-.78.109-1.03.062-.249-.062-.53-.234-.608-.405-.125-.203-.094-.453.078-.874.14-.328.827-1.186 1.544-1.919.718-.733 1.467-1.575 1.669-1.872.188-.296.78-1.045 1.311-1.638.515-.608 1.139-1.404 1.388-1.794.234-.39.796-.983 1.233-1.326a40.017 40.017 0 0 0 1.575-1.326 12.67 12.67 0 0 0 1.373-1.529c.343-.468 1.232-1.45 1.981-2.199.733-.749 1.607-1.545 1.919-1.794a5.16 5.16 0 0 1 1.17-.64c.328-.125.764-.171.983-.125.218.047 1.201.546 2.215 1.092Zm12.137 4.571c.561.25 1.232.484 1.482.546.265.063.78.219 1.17.359.39.14 1.092.484 1.56.78.468.281.998.546 1.17.577.171.047.811.141 1.404.219.608.078 2.043.327 3.198.561 1.232.25 2.496.593 3.042.858.515.25 1.092.593 1.295.78.343.328.343.359.093.64-.14.156-.468.359-.749.437-.265.093-1.528.343-2.823.546-1.279.202-3.526.561-4.992.795-1.451.219-3.245.499-3.978.624-.733.109-2.091.25-3.042.312-.936.047-2.247.016-2.902-.062a16.257 16.257 0 0 1-2.511-.609c-.734-.265-1.529-.577-1.794-.702-.266-.14-.515-.374-.578-.499a3.072 3.072 0 0 1-.093-.749c0-.296.156-.67.359-.904.187-.234.936-.905 1.669-1.498.733-.608 1.497-1.295 1.716-1.529.218-.234.858-.733 1.435-1.123.577-.39 1.248-.749 1.482-.827.25-.078.655-.093.905-.047.265.047.92.281 1.482.515Z"/></svg>